<svg height="372pt" viewBox="0 0 372 372" width="372pt" xmlns="http://www.w3.org/2000/svg"><path d="m156.445312 116.554688c.027344-23.503907 16.539063-43.765626 39.554688-48.539063-19.707031-4.050781-39.910156 4.214844-51.121094 20.921875-11.214844 16.703125-11.214844 38.53125 0 55.238281 11.210938 16.703125 31.414063 24.972657 51.121094 20.921875-23.015625-4.777344-39.523438-25.035156-39.554688-48.542968zm0 0" fill="#d4e1f4"/><path d="m196 217.535156c-25.480469-2.726562-50.972656 5.066406-70.570312 21.578125-19.597657 16.511719-31.605469 40.3125-33.242188 65.886719h20c2.984375-45.640625 38.339844-82.539062 83.8125-87.464844zm0 0" fill="#d4e1f4"/><path d="m186 178.109375c33.996094 0 61.554688-27.558594 61.554688-61.554687 0-33.996094-27.558594-61.554688-61.554688-61.554688s-61.554688 27.558594-61.554688 61.554688c.039063 33.980468 27.574219 61.519531 61.554688 61.554687zm0-111.109375c27.367188 0 49.554688 22.1875 49.554688 49.554688 0 27.371093-22.1875 49.558593-49.554688 49.558593s-49.554688-22.1875-49.554688-49.558593c.03125-27.355469 22.199219-49.523438 49.554688-49.554688zm0 0" fill="#0635c9"/><path d="m86 317h200c3.3125 0 6-2.6875 6-6 0-58.542969-47.457031-106-106-106s-106 47.457031-106 106c0 3.3125 2.6875 6 6 6zm100-100c49.5625.058594 90.585938 38.542969 93.8125 88h-187.625c3.226562-49.457031 44.25-87.941406 93.8125-88zm0 0" fill="#0635c9"/><g fill="#1ae5be"><path d="m97.070312 0h-91.070312c-3.3125 0-6 2.6875-6 6v91.070312c0 3.3125 2.6875 6 6 6s6-2.6875 6-6v-85.070312h85.070312c3.3125 0 6-2.6875 6-6s-2.6875-6-6-6zm0 0"/><path d="m97.070312 360h-85.070312v-85.070312c0-3.3125-2.6875-6-6-6s-6 2.6875-6 6v91.070312c0 3.3125 2.6875 6 6 6h91.070312c3.3125 0 6-2.6875 6-6s-2.6875-6-6-6zm0 0"/><path d="m274.929688 372h91.070312c3.3125 0 6-2.6875 6-6v-91.070312c0-3.3125-2.6875-6-6-6s-6 2.6875-6 6v85.070312h-85.070312c-3.3125 0-6 2.6875-6 6s2.6875 6 6 6zm0 0"/><path d="m274.929688 12h85.070312v85.070312c0 3.3125 2.6875 6 6 6s6-2.6875 6-6v-91.070312c0-3.3125-2.6875-6-6-6h-91.070312c-3.3125 0-6 2.6875-6 6s2.6875 6 6 6zm0 0"/></g></svg>